<svg width="172" height="76" viewBox="0 0 172 76" fill="none" xmlns="http://www.w3.org/2000/svg">
<path d="M38 7.125C44.1065 7.125 50.0758 8.93579 55.1532 12.3284C60.2306 15.721 64.1879 20.543 66.5248 26.1846C68.8616 31.8263 69.4731 38.0343 68.2817 44.0234C67.0904 50.0126 64.1499 55.514 59.8319 59.8319C55.514 64.1499 50.0126 67.0904 44.0234 68.2817C38.0342 69.4731 31.8263 68.8616 26.1846 66.5248C20.543 64.1879 15.721 60.2306 12.3284 55.1532C8.93577 50.0759 7.12498 44.1065 7.12498 38C7.13363 29.8141 10.3893 21.9659 16.1776 16.1776C21.9659 10.3893 29.8141 7.13364 38 7.125ZM38 64.125C43.167 64.125 48.218 62.5928 52.5143 59.7221C56.8105 56.8515 60.159 52.7713 62.1363 47.9976C64.1137 43.2239 64.631 37.971 63.623 32.9033C62.615 27.8355 60.1268 23.1805 56.4732 19.5268C52.8195 15.8732 48.1645 13.385 43.0967 12.377C38.029 11.3689 32.7761 11.8863 28.0024 13.8636C23.2287 15.841 19.1485 19.1895 16.2778 23.4857C13.4072 27.782 11.875 32.833 11.875 38C11.8828 44.9264 14.6378 51.5668 19.5355 56.4645C24.4332 61.3622 31.0736 64.1171 38 64.125ZM23.75 38C23.75 38.6299 24.0002 39.234 24.4456 39.6794C24.891 40.1248 25.4951 40.375 26.125 40.375H44.1423L38.6947 45.8197C38.474 46.0403 38.299 46.3023 38.1796 46.5906C38.0601 46.8789 37.9987 47.1879 37.9987 47.5C37.9987 47.8121 38.0601 48.1211 38.1796 48.4094C38.299 48.6977 38.474 48.9597 38.6947 49.1803C38.9153 49.401 39.1773 49.576 39.4656 49.6954C39.7539 49.8149 40.0629 49.8763 40.375 49.8763C40.687 49.8763 40.9961 49.8149 41.2844 49.6954C41.5727 49.576 41.8346 49.401 42.0553 49.1803L51.5553 39.6803C51.7761 39.4597 51.9513 39.1978 52.0708 38.9095C52.1903 38.6212 52.2519 38.3121 52.2519 38C52.2519 37.6879 52.1903 37.3788 52.0708 37.0905C51.9513 36.8022 51.7761 36.5403 51.5553 36.3197L42.0553 26.8197C41.6097 26.374 41.0052 26.1237 40.375 26.1237C39.7447 26.1237 39.1403 26.374 38.6947 26.8197C38.249 27.2653 37.9987 27.8698 37.9987 28.5C37.9987 29.1302 38.249 29.7347 38.6947 30.1803L44.1423 35.625H26.125C25.4951 35.625 24.891 35.8752 24.4456 36.3206C24.0002 36.766 23.75 37.3701 23.75 38Z" fill="#838383"/>
<path d="M134 7.125C127.894 7.125 121.924 8.93579 116.847 12.3284C111.769 15.721 107.812 20.543 105.475 26.1846C103.138 31.8263 102.527 38.0343 103.718 44.0234C104.91 50.0126 107.85 55.514 112.168 59.8319C116.486 64.1499 121.987 67.0904 127.977 68.2817C133.966 69.4731 140.174 68.8616 145.815 66.5248C151.457 64.1879 156.279 60.2306 159.672 55.1532C163.064 50.0759 164.875 44.1065 164.875 38C164.866 29.8141 161.611 21.9659 155.822 16.1776C150.034 10.3893 142.186 7.13364 134 7.125ZM134 64.125C128.833 64.125 123.782 62.5928 119.486 59.7221C115.19 56.8515 111.841 52.7713 109.864 47.9976C107.886 43.2239 107.369 37.971 108.377 32.9033C109.385 27.8355 111.873 23.1805 115.527 19.5268C119.18 15.8732 123.836 13.385 128.903 12.377C133.971 11.3689 139.224 11.8863 143.998 13.8636C148.771 15.841 152.852 19.1895 155.722 23.4857C158.593 27.782 160.125 32.833 160.125 38C160.117 44.9264 157.362 51.5668 152.465 56.4645C147.567 61.3622 140.926 64.1171 134 64.125ZM147.555 36.3197C147.776 36.5403 147.951 36.8022 148.071 37.0905C148.19 37.3788 148.252 37.6879 148.252 38C148.252 38.3121 148.19 38.6212 148.071 38.9095C147.951 39.1978 147.776 39.4597 147.555 39.6803L138.055 49.1803C137.61 49.626 137.005 49.8763 136.375 49.8763C135.745 49.8763 135.14 49.626 134.695 49.1803C134.249 48.7347 133.999 48.1302 133.999 47.5C133.999 46.8698 134.249 46.2653 134.695 45.8197L140.142 40.375H122.125C121.495 40.375 120.891 40.1248 120.446 39.6794C120 39.234 119.75 38.6299 119.75 38C119.75 37.3701 120 36.766 120.446 36.3206C120.891 35.8752 121.495 35.625 122.125 35.625H140.142L134.695 30.1803C134.249 29.7347 133.999 29.1302 133.999 28.5C133.999 27.8698 134.249 27.2653 134.695 26.8197C135.14 26.374 135.745 26.1237 136.375 26.1237C137.005 26.1237 137.61 26.374 138.055 26.8197L147.555 36.3197Z" fill="black"/>
</svg>
