<svg width="20" height="21" viewBox="0 0 20 21" fill="none" xmlns="http://www.w3.org/2000/svg">
<path d="M17.0946 10.7929C19.6621 7.18766 20.9714 3.46159 19.1507 1.64074C17.33 -0.18011 13.6042 1.12928 9.99919 3.697C6.39422 1.12928 2.66842 -0.18011 0.847707 1.64074C-0.973007 3.46159 0.336282 7.18766 2.90382 10.7929C0.336282 14.3981 -0.973007 18.1242 0.847707 19.945C1.43413 20.5315 2.21741 20.793 3.12985 20.793C5.05472 20.793 7.55456 19.6294 10.0044 17.8888C12.4438 19.6294 14.9437 20.793 16.8737 20.793C17.7862 20.793 18.5705 20.5305 19.1559 19.945C20.9714 18.1242 19.6621 14.3981 17.0946 10.7929ZM17.9726 2.81887C18.7684 3.61471 18.2309 6.1939 16.0436 9.41059C15.3516 8.5539 14.6148 7.73435 13.8364 6.95536C13.0574 6.17796 12.2379 5.44221 11.3814 4.75118C14.5978 2.56366 17.1768 2.02199 17.9726 2.81887ZM15.0291 10.7929C14.292 11.7254 13.5004 12.6134 12.6584 13.4523C11.8195 14.2944 10.9316 15.086 9.99919 15.8231C9.06678 15.086 8.17883 14.2944 7.33999 13.4523C6.49798 12.6134 5.70637 11.7254 4.96931 10.7929C6.44807 8.9293 8.13573 7.24152 9.99919 5.76264C10.9316 6.49976 11.8195 7.29143 12.6584 8.1335C13.5004 8.9724 14.292 9.86042 15.0291 10.7929ZM2.02575 2.81887C2.25491 2.58866 2.63301 2.46991 3.13193 2.46991C4.3631 2.46991 6.3286 3.18867 8.61594 4.75118C7.76021 5.44277 6.9411 6.1785 6.16194 6.95536C5.38459 7.73443 4.6489 8.55398 3.95792 9.41059C1.77056 6.1939 1.22997 3.61471 2.02575 2.81887ZM2.02575 18.7669C1.22997 17.9711 1.77056 15.3919 3.95792 12.1752C4.64991 13.0319 5.38665 13.8514 6.16506 14.6304C6.94357 15.4072 7.76198 16.1429 8.61699 16.8346C5.40053 19.0221 2.82153 19.5638 2.02575 18.7669ZM17.9726 18.7669C17.1768 19.5638 14.5978 19.0252 11.3814 16.8377C12.2375 16.1451 13.057 15.4084 13.8364 14.6304C14.6138 13.8514 15.3495 13.0318 16.0405 12.1752C18.2278 15.3919 18.7684 17.9711 17.9726 18.7669ZM11.2491 10.7929C11.2491 11.0401 11.1758 11.2818 11.0385 11.4874C10.9011 11.6929 10.7059 11.8531 10.4775 11.9477C10.2491 12.0424 9.9978 12.0671 9.75534 12.0189C9.51288 11.9707 9.29017 11.8516 9.11536 11.6768C8.94056 11.502 8.82151 11.2792 8.77329 11.0368C8.72506 10.7943 8.74981 10.5429 8.84441 10.3145C8.93902 10.0861 9.09922 9.8909 9.30477 9.75355C9.51032 9.61619 9.75198 9.54288 9.99919 9.54288C10.3307 9.54288 10.6486 9.67458 10.883 9.909C11.1174 10.1434 11.2491 10.4614 11.2491 10.7929Z" fill="#5485CD"/>
</svg>
